# xmcd
#
# Track frame offsets:
# 150
# 9437
# 32737
# 50690
# 64727
# 75627
# 98162
# 107357
# 115800
# 146107
# 152777
# 167625
# 195627
# 203685
#
# Disc length: 2837 seconds
#
# Revision: 0
# Processed by: cddbd v1.5.2PL0 Copyright (c) Steve Scherf et al.
# Submitted via: Axialis_AX_CDPlayer 2.6
#
DISCID=b30b130e
DTITLE=Various Artist - Living Country Blues USA Volume 7 - Afro-American B
DTITLE=lues \nRoots
DYEAR=1900
DGENRE=
TTITLE0=The Hounds - Sam "Stretch" Shields
TTITLE1=Boogie Chillun - Lonnie Pitchford
TTITLE2=Alberta - Walter Brown
TTITLE3=Dry Bones In The Valley - Cora Fluker
TTITLE4=Granny, Will Your Dog Bite - Othar Turner and The Rising Star Fife And
TTITLE4=Drum \nBand
TTITLE5=Roustabout Holler - Walter Brown
TTITLE6=Goin' Up The Country Blues - Arzo Youngblood
TTITLE7=Move Daniel - Cora Fluker
TTITLE8=Raise 'Em Up Higher - Walter Brown and Joe Savage
TTITLE9=Banty Rooster - Napoleon Strickland
TTITLE10=When The Saints Go Marchin' In - Othar Turner and The Rising Star Fif
TTITLE10=e And \nDrum Band
TTITLE11=Johnny Stole An Apple - Lonnie Pitchford
TTITLE12=Cryin' Won't Make Me Stay - Napoleaon Strickland
TTITLE13=Father, I Stretch My Hand To Thee - Othar Turner
EXTD=
EXTT0=
EXTT1=
EXTT2=
EXTT3=
EXTT4=
EXTT5=
EXTT6=
EXTT7=
EXTT8=
EXTT9=
EXTT10=
EXTT11=
EXTT12=
EXTT13=
PLAYORDER=
